<?xml version="1.0" encoding="UTF-8"?>
<svg xmlns="http://www.w3.org/2000/svg" version="1.2" baseProfile="tiny"
     viewBox="0 0 1024 512">
  <title>XSunEC · Logo Horizontal v2 (Transparent · Gold/Navy)</title>
  <g id="icon" transform="translate(0.000000,103.420615) scale(0.596013222478)">
<path fill="#DAA520" d="M256,10 A246,246 0 1,1 255.9,10 Z"/>
<path fill="#110B2E" d="M282,36 A220,220 0 1,1 281.9,36 Z"/>
<path fill="#FFFFFF" d="M90,215 m-14.4,0 a14.4,14.4 0 1,0 28.8,0 a14.4,14.4 0 1,0 -28.8,0Z"/>
<path fill="#FFFFFF" d="M186,205 m-12.8,0 a12.8,12.8 0 1,0 25.6,0 a12.8,12.8 0 1,0 -25.6,0Z"/>
<path fill="#FFFFFF" d="M261,240 m-13.6,0 a13.6,13.6 0 1,0 27.2,0 a13.6,13.6 0 1,0 -27.2,0Z"/>
<path fill="#FFFFFF" d="M331,285 m-7,0 a7,7 0 1,0 14,0 a7,7 0 1,0 -14,0Z"/>
<path fill="#FFFFFF" d="M351,355 m-10.4,0 a10.4,10.4 0 1,0 20.8,0 a10.4,10.4 0 1,0 -20.8,0Z"/>
<path fill="#FFFFFF" d="M441,370 m-11.2,0 a11.2,11.2 0 1,0 22.4,0 a11.2,11.2 0 1,0 -22.4,0Z"/>
<path fill="#FFFFFF" d="M476,285 m-16,0 a16,16 0 1,0 32,0 a16,16 0 1,0 -32,0Z"/>
<path fill="none" stroke="#FFFFFF" stroke-width="9" stroke-linecap="round"
      d="M90,215 L186,205 L261,240 L331,285 L351,355 L441,370 L476,285"/>
<g transform="translate(25,-45)">
  <g transform="rotate(10 420 366)">
    <path fill="#FFFFFF" d="M340,325 h74 a6,6 0 0 1 0,12 h-74 a6,6 0 0 1 0,-12Z"/>
    <path fill="#FFFFFF" d="M340,355 h74 a6,6 0 0 1 0,12 h-74 a6,6 0 0 1 0,-12Z"/>
    <path fill="#FFFFFF" d="M341,384 h28 a6,6 0 0 1 0,12 h-28 a6,6 0 0 1 0,-12Z"/>
    <path fill="#FFFFFF" d="M385,384 h28 a6,6 0 0 1 0,12 h-28 a6,6 0 0 1 0,-12Z"/>
  </g>
</g>

  </g>
  <g id="text" transform="translate(347.009115,190.608835) scale(0.769307823300) translate(-160,-765)">
    <path fill="#DAA520" d="m 249.64355,844.59961 40.17579,59.61914 q 9.99023,14.82422 14.17968,18.04687 4.29688,3.11524 10.09766,3.75977 V 930 h -71.00586 v -3.97461 q 8.48633,-0.64453 10.95703,-2.57812 2.4707,-1.9336 2.4707,-4.72657 0,-1.93359 -0.75195,-3.4375 -1.5039,-3.22265 -7.51953,-12.03125 l -21.26953,-31.47461 -22.23633,27.17774 q -9.99023,12.35351 -9.99023,16.75781 0,3.11523 2.57812,5.80078 2.57813,2.68555 7.62695,3.86719 2.25586,0.64453 9.23829,0.64453 V 930 h -55.9668 v -3.97461 q 9.56055,-1.39648 15.03906,-5.15625 7.19727,-4.94141 20.08789,-20.625 l 28.89649,-35.23437 -37.06055,-54.4629 q -9.13086,-13.42773 -10.41992,-14.93164 -2.90039,-3.54492 -5.69336,-5.04882 -2.79297,-1.50391 -7.73438,-2.25586 v -3.97461 h 72.29493 v 3.97461 h -3.65235 q -6.23047,0 -8.70117,2.04101 -2.4707,1.9336 -2.4707,4.94141 0,2.36328 0.75195,4.08203 l 7.41211,11.17187 18.04687,27.5 15.36133,-18.79882 q 11.81641,-14.50196 11.81641,-20.30274 0,-2.90039 -1.71875,-5.37109 -1.61133,-2.4707 -4.72656,-3.86719 -3.11524,-1.39648 -9.66797,-1.39648 v -3.97461 h 53.60351 v 3.97461 q -6.33789,0.10742 -10.20508,1.61132 -3.86718,1.39649 -8.27148,5.3711 -2.79297,2.57812 -13.96484,16.00586 z m 169.29688,-63.59375 1.18164,48.55469 h -4.4043 q -3.11523,-18.26172 -15.36132,-29.32618 -12.13868,-11.17187 -26.31836,-11.17187 -10.95704,0 -17.40235,5.9082 -6.33789,5.80078 -6.33789,13.42774 0,4.83398 2.25586,8.59375 3.11524,5.04883 9.99024,9.99023 5.04882,3.54492 23.31054,12.56836 25.56641,12.56836 34.48242,23.74024 8.8086,11.17187 8.8086,25.5664 0,18.26172 -14.28711,31.47461 -14.17969,13.10547 -36.09375,13.10547 -6.875,0 -12.99805,-1.39648 -6.12305,-1.39649 -15.36133,-5.26368 -5.15625,-2.14843 -8.48632,-2.14843 -2.79297,0 -5.90821,2.14843 -3.11523,2.14844 -5.04883,6.55274 h -3.97461 v -55 h 3.97461 q 4.72657,23.20312 18.1543,35.44922 13.53516,12.13867 29.11133,12.13867 12.03125,0 19.12109,-6.55274 7.19727,-6.55273 7.19727,-15.2539 0,-5.15625 -2.79297,-9.99024 -2.68555,-4.83398 -8.27148,-9.13086 -5.58594,-4.40429 -19.76563,-11.38671 -19.87305,-9.7754 -28.57422,-16.6504 -8.70117,-6.875 -13.42773,-15.36132 -4.61914,-8.48633 -4.61914,-18.69141 0,-17.40234 12.7832,-29.64844 12.7832,-12.24609 32.22656,-12.24609 7.08985,0 13.75,1.71875 5.04883,1.28906 12.2461,4.83398 7.30468,3.4375 10.20507,3.4375 2.79297,0 4.4043,-1.71875 1.61133,-1.71875 3.00781,-8.27148 z m 123.42773,48.55469 v 78.63281 q 0,11.49414 2.14844,14.39453 2.14844,2.79297 8.70117,3.54492 V 930 h -40.92773 v -13.42773 q -7.19727,8.59375 -14.39453,12.56835 -7.19727,3.86719 -16.11328,3.86719 -8.48633,0 -15.14649,-5.15625 -6.55273,-5.26367 -8.80859,-12.24609 -2.25586,-6.98242 -2.25586,-24.38477 v -39.85351 q 0,-11.38672 -2.14844,-14.17969 -2.04101,-2.79297 -8.70117,-3.65234 v -3.97461 h 40.92773 v 68.64257 q 0,10.74219 0.9668,13.85743 1.07422,3.11523 3.22266,4.72656 2.25586,1.61133 5.15625,1.61133 3.86718,0 6.98242,-2.04102 4.29687,-2.79297 10.3125,-11.2793 v -53.71093 q 0,-11.38672 -2.14844,-14.17969 -2.04101,-2.79297 -8.70117,-3.65234 v -3.97461 z m 66.38672,0 v 12.99804 q 7.73438,-8.3789 14.82422,-12.13867 7.08985,-3.86719 15.25391,-3.86719 9.77539,0 16.2207,5.47852 6.44531,5.37109 8.59375,13.42773 1.71875,6.12305 1.71875,23.52539 v 39.10157 q 0,11.60156 2.04102,14.50195 2.14843,2.79297 8.80859,3.54492 V 930 h -50.81055 v -3.86719 q 5.69336,-0.75195 8.16407,-4.72656 1.71875,-2.68555 1.71875,-13.32031 v -44.6875 q 0,-12.35352 -0.9668,-15.57617 -0.9668,-3.22266 -3.33008,-4.94141 -2.25586,-1.82617 -5.04883,-1.82617 -9.23828,0 -17.1875,13.21289 v 53.81836 q 0,11.27929 2.04102,14.28711 2.14844,3.00781 7.8418,3.75976 V 930 h -50.81055 v -3.86719 q 6.33789,-0.64453 9.02344,-4.08203 1.82617,-2.36328 1.82617,-13.96484 v -56.71875 q 0,-11.38672 -2.14844,-14.17969 -2.04102,-2.79297 -8.70117,-3.65234 v -3.97461 z m 188.84766,-36.84571 v 59.29688 h 2.90039 q 13.85742,0 20.08789,-8.70117 6.23047,-8.70118 7.94922,-25.67383 h 4.08203 v 76.26953 h -4.08203 q -1.28906,-12.46094 -5.47852,-20.41016 -4.08203,-7.94922 -9.56054,-10.63476 -5.47852,-2.79297 -15.89844,-2.79297 v 41.03516 q 0,12.03125 0.9668,14.71679 1.07421,2.68555 3.86718,4.4043 2.79297,1.71875 9.02344,1.71875 h 8.70117 q 20.41016,0 32.65625,-9.45313 12.35352,-9.45312 17.72461,-28.78906 h 3.97461 L 867.96387,930 H 742.06543 v -3.97461 h 4.83398 q 6.33789,0 10.20508,-2.25586 2.79297,-1.50391 4.29688,-5.15625 1.18164,-2.57812 1.18164,-13.53516 v -95.82031 q 0,-9.88281 -0.53711,-12.13867 -1.07422,-3.75977 -3.97461,-5.80078 -4.08203,-3.00781 -11.17188,-3.00781 h -4.83398 v -3.97461 h 121.92383 v 43.07617 h -4.08203 q -3.11524,-15.79102 -8.8086,-22.66602 -5.58593,-6.875 -15.89843,-10.09765 -6.01563,-1.9336 -22.5586,-1.9336 z m 233.64256,-11.70898 v 50.48828 h -4.1894 q -4.7266,-19.76562 -17.6172,-30.29297 -12.89065,-10.52734 -29.21877,-10.52734 -13.64258,0 -25.0293,7.84179 -11.38672,7.8418 -16.65039,20.51758 -6.76758,16.22071 -6.76758,36.09375 0,19.55078 4.94141,35.66407 4.9414,16.00585 15.46875,24.27734 10.52734,8.16406 27.28515,8.16406 13.75,0 25.13673,-6.01562 11.4941,-6.01563 24.1699,-20.73243 v 12.56836 q -12.2461,12.78321 -25.5664,18.58399 -13.21288,5.69336 -30.93749,5.69336 -23.31055,0 -41.46485,-9.34571 -18.04687,-9.3457 -27.92968,-26.85546 -9.77539,-17.50977 -9.77539,-37.27539 0,-20.83985 10.84961,-39.53125 10.95703,-18.69141 29.43359,-29.00391 18.58398,-10.3125 39.42383,-10.3125 15.36133,0 32.44138,6.66016 9.8828,3.86718 12.5684,3.86718 3.4375,0 5.9082,-2.4707 2.5781,-2.57813 3.3301,-8.05664 z"/>
  </g>
</svg>
